<svg xmlns="http://www.w3.org/2000/svg" viewBox="0 0 64 64" width="20" height="20">
<rect width="64" height="64" rx="10" fill="#1F1F28"/>
<path d="M260.0 265.0Q260.0 251.0 252.0 238.0Q244.0 251.0 232.0 258.0Q220.0 265.0 205.0 265.0Q190.0 265.0 177.0 258.0Q164.0 251.0 158.0 238.0Q150.0 252.0 150.0 265.0Q150.0 288.0 166.0 303.5Q182.0 319.0 205.0 319.0Q228.0 319.0 244.0 303.5Q260.0 288.0 260.0 265.0ZM600.0 278.0L600.0 197.0Q600.0 185.0 592.0 177.5Q584.0 170.0 572.0 170.0L544.0 170.0L544.0 142.0Q544.0 120.0 528.0 104.0Q512.0 88.0 490.0 88.0L110.0 88.0Q86.0 88.0 71.0 104.0Q56.0 120.0 56.0 142.0L56.0 170.0L28.0 170.0Q16.0 170.0 8.0 177.5Q0.0 185.0 0.0 197.0L0.0 278.0Q0.0 290.0 8.0 297.5Q16.0 305.0 28.0 305.0L56.0 305.0Q56.0 357.0 81.0 401.5Q106.0 446.0 150.0 471.5Q194.0 497.0 246.0 497.0L274.0 497.0L274.0 531.0Q260.0 538.0 253.0 550.5Q246.0 563.0 246.0 578.0Q246.0 600.0 262.0 616.0Q278.0 632.0 300.0 632.0Q322.0 632.0 338.0 616.0Q354.0 600.0 354.0 578.0Q354.0 563.0 347.0 550.0Q340.0 537.0 326.0 531.0L326.0 497.0L354.0 497.0Q406.0 497.0 450.0 471.5Q494.0 446.0 519.0 401.5Q544.0 357.0 544.0 305.0L572.0 305.0Q584.0 305.0 592.0 297.5Q600.0 290.0 600.0 278.0ZM544.0 252.0L490.0 252.0L490.0 305.0Q490.0 342.0 472.0 373.5Q454.0 405.0 423.0 423.5Q392.0 442.0 354.0 442.0L246.0 442.0Q208.0 442.0 177.0 423.5Q146.0 405.0 128.0 373.5Q110.0 342.0 110.0 305.0L110.0 252.0L56.0 252.0L56.0 223.0L110.0 223.0L110.0 142.0L490.0 142.0L490.0 223.0L544.0 223.0L544.0 252.0ZM396.0 319.0Q372.0 319.0 356.0 303.5Q340.0 288.0 340.0 265.0Q340.0 253.0 348.0 238.0Q356.0 251.0 368.0 258.0Q380.0 265.0 395.0 265.0Q410.0 265.0 423.0 258.0Q436.0 251.0 442.0 238.0Q450.0 251.0 450.0 265.0Q450.0 288.0 434.0 303.5Q418.0 319.0 396.0 319.0Z" fill="#9CABCA" transform="translate(18.2 48.6) scale(0.0461 -0.0461)"/>
</svg>
