<svg xmlns="http://www.w3.org/2000/svg" viewBox="0 0 64 64" width="20" height="20">
<rect width="64" height="64" rx="10" fill="#1F1F28"/>
<path d="M544.0 360.0Q544.0 461.0 472.0 532.0Q401.0 604.0 300.0 604.0Q199.0 604.0 128.0 532.0Q57.0 460.0 56.0 360.0Q56.0 259.0 128.0 188.0Q199.0 116.0 300.0 116.0Q401.0 116.0 472.0 188.0Q544.0 259.0 544.0 360.0ZM0.0 360.0Q0.0 484.0 88.0 572.0Q176.0 660.0 300.0 660.0Q424.0 660.0 512.0 572.0Q600.0 484.0 599.0 360.0Q599.0 236.0 512.0 148.0Q424.0 60.0 300.0 60.0Q176.0 60.0 88.0 148.0Q0.0 236.0 0.0 360.0Z" fill="#6B6962" transform="translate(18.2 48.6) scale(0.0461 -0.0461)"/>
</svg>
