<svg xmlns="http://www.w3.org/2000/svg" viewBox="0 0 542 225" width="542">
<defs>
<path id="g25cf" d="M300.0 50.0Q212.0 50.0 141.5 90.5Q71.0 131.0 30.5 201.5Q-10.0 272.0 -10.0 360.0Q-10.0 449.0 30.5 519.0Q71.0 589.0 141.5 629.5Q212.0 670.0 300.0 670.0Q389.0 670.0 459.0 629.5Q529.0 589.0 569.5 519.0Q610.0 449.0 610.0 360.0Q610.0 272.0 569.5 201.5Q529.0 131.0 459.0 90.5Q389.0 50.0 300.0 50.0Z"/>
<path id="g2502" d="M250.0 -400.0L250.0 1120.0L350.0 1120.0L350.0 -400.0L250.0 -400.0Z"/>
<path id="g35" d="M294.0 -10.0Q193.0 -10.0 134.0 46.5Q75.0 103.0 75.0 200.0L165.0 200.0Q165.0 140.0 200.0 105.0Q235.0 70.0 295.0 70.0Q355.0 70.0 390.0 105.0Q425.0 140.0 425.0 200.0L425.0 245.0Q425.0 305.0 391.0 340.0Q357.0 375.0 299.0 375.0L100.0 375.0L100.0 730.0L489.0 730.0L489.0 648.0L184.0 648.0L186.0 457.0L304.0 457.0Q405.0 457.0 460.0 401.5Q515.0 346.0 515.0 245.0L515.0 200.0Q515.0 103.0 455.5 46.5Q396.0 -10.0 294.0 -10.0Z"/>
<path id="g32" d="M86.0 0.0L86.0 83.0L329.0 343.0Q382.0 399.0 404.0 443.0Q426.0 487.0 426.0 529.0Q426.0 589.0 391.5 624.5Q357.0 660.0 298.0 660.0Q237.0 660.0 201.5 623.5Q166.0 587.0 166.0 525.0L76.0 525.0Q79.0 624.0 139.0 682.0Q199.0 740.0 298.0 740.0Q399.0 740.0 458.5 683.0Q518.0 626.0 518.0 528.0Q518.0 476.0 489.5 418.0Q461.0 360.0 392.0 288.0L195.0 82.0L527.0 82.0L527.0 0.0L86.0 0.0Z"/>
<path id="g6b" d="M97.0 0.0L97.0 730.0L187.0 730.0L187.0 323.0L292.0 323.0L446.0 550.0L549.0 550.0L372.0 288.0L559.0 0.0L454.0 0.0L294.0 245.0L187.0 245.0L187.0 0.0L97.0 0.0Z"/>
<path id="gf062c" d="M336.0 284.0Q254.0 284.0 206.0 258.0Q170.0 236.0 158.0 202.0Q188.0 188.0 206.0 160.0Q224.0 132.0 224.0 98.0Q224.0 50.0 192.0 18.0Q160.0 -14.0 113.0 -14.0Q66.0 -14.0 33.0 19.0Q0.0 52.0 0.0 98.0Q0.0 134.0 21.0 163.0Q42.0 192.0 76.0 204.0L76.0 516.0Q42.0 530.0 21.0 558.0Q0.0 586.0 0.0 622.0Q0.0 670.0 33.0 702.0Q66.0 734.0 113.0 734.0Q160.0 734.0 192.0 702.0Q224.0 670.0 224.0 622.0Q224.0 586.0 204.0 557.0Q184.0 528.0 152.0 516.0L152.0 318.0Q208.0 360.0 300.0 360.0Q366.0 360.0 406.0 390.0Q434.0 410.0 444.0 444.0Q414.0 458.0 395.0 486.0Q376.0 514.0 376.0 548.0Q376.0 594.0 408.0 627.0Q440.0 660.0 487.0 660.0Q534.0 660.0 567.0 627.0Q600.0 594.0 600.0 548.0Q600.0 510.0 578.0 480.0Q556.0 450.0 520.0 442.0Q510.0 382.0 476.0 342.0Q428.0 284.0 336.0 284.0ZM112.0 136.0Q96.0 136.0 86.0 126.0Q76.0 116.0 76.0 99.0Q76.0 82.0 86.0 71.0Q96.0 60.0 112.0 60.0Q128.0 60.0 140.0 71.0Q152.0 82.0 152.0 99.0Q152.0 116.0 140.0 126.0Q128.0 136.0 112.0 136.0ZM112.0 660.0Q96.0 660.0 86.0 649.0Q76.0 638.0 76.0 622.0Q76.0 606.0 86.0 595.0Q96.0 584.0 112.0 584.0Q128.0 584.0 140.0 595.0Q152.0 606.0 152.0 622.0Q152.0 638.0 140.0 649.0Q128.0 660.0 112.0 660.0ZM488.0 584.0Q472.0 584.0 461.0 574.0Q450.0 564.0 450.0 548.0Q450.0 532.0 461.0 521.0Q472.0 510.0 488.0 510.0Q504.0 510.0 514.0 521.0Q524.0 532.0 524.0 548.0Q524.0 564.0 514.0 574.0Q504.0 584.0 488.0 584.0Z"/>
<path id="g41" d="M50.0 0.0L240.0 730.0L361.0 730.0L550.0 0.0L459.0 0.0L411.0 194.0L190.0 194.0L142.0 0.0L50.0 0.0ZM208.0 270.0L392.0 270.0L336.0 495.0Q320.0 559.0 311.0 602.0Q302.0 645.0 300.0 658.0Q298.0 645.0 289.0 602.0Q280.0 559.0 264.0 496.0L208.0 270.0Z"/>
<path id="g55" d="M300.0 -10.0Q198.0 -10.0 144.0 46.5Q90.0 103.0 90.0 200.0L90.0 730.0L180.0 730.0L180.0 200.0Q180.0 140.0 209.5 105.0Q239.0 70.0 300.0 70.0Q360.0 70.0 390.0 105.0Q420.0 140.0 420.0 200.0L420.0 730.0L510.0 730.0L510.0 200.0Q510.0 102.0 456.5 46.0Q403.0 -10.0 300.0 -10.0Z"/>
<path id="g54" d="M255.0 0.0L255.0 648.0L55.0 648.0L55.0 730.0L545.0 730.0L545.0 648.0L345.0 648.0L345.0 0.0L255.0 0.0Z"/>
<path id="g48" d="M93.0 0.0L93.0 730.0L183.0 730.0L183.0 418.0L417.0 418.0L417.0 730.0L507.0 730.0L507.0 0.0L417.0 0.0L417.0 336.0L183.0 336.0L183.0 0.0L93.0 0.0Z"/>
<path id="g2d" d="M140.0 290.0L140.0 370.0L460.0 370.0L460.0 290.0L140.0 290.0Z"/>
<path id="g37" d="M190.0 0.0L450.0 648.0L172.0 648.0L172.0 530.0L82.0 530.0L82.0 730.0L546.0 730.0L546.0 646.0L288.0 0.0L190.0 0.0Z"/>
<path id="g61" d="M252.0 -10.0Q167.0 -10.0 117.0 37.5Q67.0 85.0 67.0 162.0Q67.0 213.0 90.0 251.0Q113.0 289.0 154.0 310.5Q195.0 332.0 248.0 332.0L418.0 332.0L418.0 375.0Q418.0 482.0 301.0 482.0Q249.0 482.0 217.0 463.0Q185.0 444.0 183.0 410.0L93.0 410.0Q98.0 475.0 153.5 517.5Q209.0 560.0 301.0 560.0Q401.0 560.0 454.5 512.0Q508.0 464.0 508.0 378.0L508.0 0.0L419.0 0.0L419.0 100.0L417.0 100.0Q409.0 49.0 366.0 19.5Q323.0 -10.0 252.0 -10.0ZM274.0 66.0Q340.0 66.0 379.0 98.0Q418.0 130.0 418.0 185.0L418.0 262.0L258.0 262.0Q214.0 262.0 186.5 235.5Q159.0 209.0 159.0 165.0Q159.0 119.0 189.5 92.5Q220.0 66.0 274.0 66.0Z"/>
<path id="g70" d="M92.0 -180.0L92.0 550.0L182.0 550.0L182.0 445.0L183.0 445.0Q190.0 499.0 230.0 529.5Q270.0 560.0 332.0 560.0Q415.0 560.0 464.0 505.5Q513.0 451.0 513.0 356.0L513.0 195.0Q513.0 100.0 464.0 45.0Q415.0 -10.0 332.0 -10.0Q270.0 -10.0 230.0 21.0Q190.0 52.0 183.0 105.0L180.0 105.0L182.0 -20.0L182.0 -180.0L92.0 -180.0ZM302.0 68.0Q359.0 68.0 391.0 98.0Q423.0 128.0 423.0 195.0L423.0 355.0Q423.0 423.0 391.0 452.5Q359.0 482.0 302.0 482.0Q247.0 482.0 214.5 447.0Q182.0 412.0 182.0 350.0L182.0 200.0Q182.0 138.0 214.5 103.0Q247.0 68.0 302.0 68.0Z"/>
<path id="g69" d="M85.0 0.0L85.0 82.0L280.0 82.0L280.0 468.0L105.0 468.0L105.0 550.0L370.0 550.0L370.0 82.0L555.0 82.0L555.0 0.0L85.0 0.0ZM315.0 649.0Q282.0 649.0 263.0 666.0Q244.0 683.0 244.0 712.0Q244.0 742.0 263.0 759.5Q282.0 777.0 315.0 777.0Q348.0 777.0 367.0 759.5Q386.0 742.0 386.0 712.0Q386.0 683.0 367.0 666.0Q348.0 649.0 315.0 649.0Z"/>
<path id="g73" d="M278.0 -8.0Q186.0 -8.0 135.5 33.5Q85.0 75.0 85.0 151.0L175.0 151.0Q175.0 113.0 202.0 91.5Q229.0 70.0 278.0 70.0L322.0 70.0Q372.0 70.0 399.5 92.0Q427.0 114.0 427.0 154.0Q427.0 225.0 362.0 234.0L210.0 256.0Q154.0 264.0 123.0 302.5Q92.0 341.0 92.0 404.0Q92.0 476.0 141.5 517.0Q191.0 558.0 278.0 558.0L322.0 558.0Q402.0 558.0 452.5 518.5Q503.0 479.0 507.0 415.0L416.0 415.0Q414.0 444.0 388.5 463.0Q363.0 482.0 322.0 482.0L278.0 482.0Q232.0 482.0 206.0 461.0Q180.0 440.0 180.0 404.0Q180.0 346.0 233.0 338.0L375.0 318.0Q515.0 298.0 515.0 154.0Q515.0 77.0 464.5 34.5Q414.0 -8.0 322.0 -8.0L278.0 -8.0Z"/>
<path id="g76" d="M241.0 0.0L54.0 550.0L151.0 550.0L271.0 180.0Q282.0 147.0 290.0 116.5Q298.0 86.0 302.0 69.0Q307.0 86.0 314.0 116.5Q321.0 147.0 331.0 180.0L451.0 550.0L546.0 550.0L359.0 0.0L241.0 0.0Z"/>
<path id="g63" d="M308.0 -10.0Q208.0 -10.0 148.0 46.0Q88.0 102.0 88.0 200.0L88.0 350.0Q88.0 448.0 148.0 504.0Q208.0 560.0 308.0 560.0Q403.0 560.0 461.5 509.0Q520.0 458.0 523.0 370.0L433.0 370.0Q430.0 423.0 397.0 451.5Q364.0 480.0 308.0 480.0Q249.0 480.0 213.5 446.5Q178.0 413.0 178.0 351.0L178.0 200.0Q178.0 138.0 213.5 104.0Q249.0 70.0 308.0 70.0Q364.0 70.0 397.0 99.0Q430.0 128.0 433.0 180.0L523.0 180.0Q520.0 92.0 461.5 41.0Q403.0 -10.0 308.0 -10.0Z"/>
<path id="g52" d="M93.0 0.0L93.0 730.0L318.0 730.0Q383.0 730.0 432.0 703.5Q481.0 677.0 508.0 630.0Q535.0 583.0 535.0 520.0Q535.0 446.0 497.0 393.0Q459.0 340.0 396.0 319.0L545.0 0.0L446.0 0.0L303.0 310.0L182.0 310.0L182.0 0.0L93.0 0.0ZM182.0 391.0L318.0 391.0Q374.0 391.0 408.0 426.5Q442.0 462.0 442.0 520.0Q442.0 579.0 408.0 614.0Q374.0 649.0 318.0 649.0L182.0 649.0L182.0 391.0Z"/>
<path id="g6f" d="M300.0 -8.0Q201.0 -8.0 142.5 50.0Q84.0 108.0 84.0 212.0L84.0 338.0Q84.0 443.0 142.0 500.5Q200.0 558.0 300.0 558.0Q400.0 558.0 458.0 500.5Q516.0 443.0 516.0 338.0L516.0 212.0Q516.0 108.0 457.5 50.0Q399.0 -8.0 300.0 -8.0ZM300.0 72.0Q359.0 72.0 392.5 105.0Q426.0 138.0 426.0 202.0L426.0 348.0Q426.0 412.0 392.5 445.0Q359.0 478.0 300.0 478.0Q242.0 478.0 208.0 445.0Q174.0 412.0 174.0 348.0L174.0 202.0Q174.0 138.0 208.0 105.0Q242.0 72.0 300.0 72.0Z"/>
<path id="g74" d="M355.0 0.0Q287.0 0.0 246.0 39.5Q205.0 79.0 205.0 145.0L205.0 468.0L47.0 468.0L47.0 550.0L205.0 550.0L205.0 705.0L295.0 705.0L295.0 550.0L520.0 550.0L520.0 468.0L295.0 468.0L295.0 145.0Q295.0 117.0 311.5 99.5Q328.0 82.0 355.0 82.0L515.0 82.0L515.0 0.0L355.0 0.0Z"/>
<path id="g65" d="M300.0 -10.0Q203.0 -10.0 143.5 48.5Q84.0 107.0 84.0 210.0L84.0 340.0Q84.0 443.0 143.5 501.5Q203.0 560.0 300.0 560.0Q365.0 560.0 413.5 534.0Q462.0 508.0 489.0 461.0Q516.0 414.0 516.0 350.0L516.0 252.0L172.0 252.0L172.0 200.0Q172.0 139.0 207.0 103.5Q242.0 68.0 300.0 68.0Q350.0 68.0 382.5 87.5Q415.0 107.0 422.0 140.0L512.0 140.0Q503.0 71.0 445.0 30.5Q387.0 -10.0 300.0 -10.0ZM172.0 322.0L428.0 322.0L428.0 350.0Q428.0 415.0 394.5 450.5Q361.0 486.0 300.0 486.0Q239.0 486.0 205.5 450.5Q172.0 415.0 172.0 350.0L172.0 322.0Z"/>
<path id="g68" d="M92.0 0.0L92.0 730.0L182.0 730.0L182.0 445.0L183.0 445.0Q190.0 500.0 228.0 530.0Q266.0 560.0 329.0 560.0Q412.0 560.0 461.0 509.0Q510.0 458.0 510.0 370.0L510.0 0.0L420.0 0.0L420.0 355.0Q420.0 417.0 388.5 450.5Q357.0 484.0 303.0 484.0Q247.0 484.0 214.5 449.0Q182.0 414.0 182.0 350.0L182.0 0.0L92.0 0.0Z"/>
<path id="g67" d="M161.0 -180.0L161.0 -98.0L316.0 -98.0Q363.0 -98.0 390.0 -71.5Q417.0 -45.0 417.0 0.0L417.0 50.0L419.0 140.0L416.0 140.0Q408.0 91.0 369.0 64.5Q330.0 38.0 271.0 38.0Q186.0 38.0 137.0 92.0Q88.0 146.0 88.0 240.0L88.0 356.0Q88.0 450.0 137.0 505.0Q186.0 560.0 271.0 560.0Q330.0 560.0 369.0 532.0Q408.0 504.0 416.0 455.0L418.0 455.0L418.0 550.0L507.0 550.0L507.0 0.0Q507.0 -83.0 455.5 -131.5Q404.0 -180.0 315.0 -180.0L161.0 -180.0ZM298.0 113.0Q354.0 113.0 386.0 148.0Q418.0 183.0 418.0 245.0L418.0 350.0Q418.0 412.0 386.0 447.0Q354.0 482.0 298.0 482.0Q241.0 482.0 209.5 449.0Q178.0 416.0 178.0 360.0L178.0 235.0Q178.0 179.0 209.5 146.0Q241.0 113.0 298.0 113.0Z"/>
<path id="g6e" d="M92.0 0.0L92.0 550.0L182.0 550.0L182.0 445.0L183.0 445.0Q190.0 500.0 228.0 530.0Q266.0 560.0 329.0 560.0Q412.0 560.0 461.0 509.0Q510.0 458.0 510.0 370.0L510.0 0.0L420.0 0.0L420.0 354.0Q420.0 417.0 388.5 450.5Q357.0 484.0 303.0 484.0Q247.0 484.0 214.5 449.0Q182.0 414.0 182.0 350.0L182.0 0.0L92.0 0.0Z"/>
<path id="g2026" d="M490.0 -10.0Q468.0 -10.0 454.0 5.0Q440.0 20.0 440.0 45.0L440.0 115.0Q440.0 140.0 454.0 155.0Q468.0 170.0 490.0 170.0Q513.0 170.0 526.5 155.0Q540.0 140.0 540.0 115.0L540.0 45.0Q540.0 20.0 526.5 5.0Q513.0 -10.0 490.0 -10.0ZM110.0 -10.0Q88.0 -10.0 74.0 5.0Q60.0 20.0 60.0 45.0L60.0 115.0Q60.0 140.0 74.0 155.0Q88.0 170.0 110.0 170.0Q133.0 170.0 146.5 155.0Q160.0 140.0 160.0 115.0L160.0 45.0Q160.0 20.0 146.5 5.0Q133.0 -10.0 110.0 -10.0ZM300.0 -10.0Q278.0 -10.0 264.0 5.0Q250.0 20.0 250.0 45.0L250.0 115.0Q250.0 140.0 264.0 155.0Q278.0 170.0 300.0 170.0Q323.0 170.0 336.5 155.0Q350.0 140.0 350.0 115.0L350.0 45.0Q350.0 20.0 336.5 5.0Q323.0 -10.0 300.0 -10.0Z"/>
<path id="ge0b6" d="M594.0 1026.0Q448.0 1026.0 298.0 932.0Q0.0 742.0 0.0 361.0Q0.0 -20.0 298.0 -210.0Q448.0 -306.0 594.0 -306.0L636.0 -306.0L636.0 1026.0L594.0 1026.0Z"/>
<path id="g31" d="M90.0 0.0L90.0 82.0L288.0 82.0L288.0 652.0L90.0 504.0L90.0 607.0L255.0 730.0L378.0 730.0L378.0 82.0L540.0 82.0L540.0 0.0L90.0 0.0Z"/>
<path id="g30" d="M300.0 -10.0Q199.0 -10.0 139.5 48.5Q80.0 107.0 80.0 205.0L80.0 525.0Q80.0 623.0 139.5 681.5Q199.0 740.0 300.0 740.0Q401.0 740.0 460.5 681.5Q520.0 623.0 520.0 525.0L520.0 205.0Q520.0 140.0 493.0 91.5Q466.0 43.0 416.5 16.5Q367.0 -10.0 300.0 -10.0ZM300.0 67.0Q360.0 67.0 396.5 105.5Q433.0 144.0 433.0 205.0L433.0 525.0Q433.0 586.0 396.5 624.5Q360.0 663.0 300.0 663.0Q240.0 663.0 203.5 624.5Q167.0 586.0 167.0 525.0L167.0 205.0Q167.0 144.0 203.5 105.5Q240.0 67.0 300.0 67.0ZM300.0 310.0Q273.0 310.0 256.5 325.0Q240.0 340.0 240.0 368.0Q240.0 395.0 256.5 409.5Q273.0 424.0 300.0 424.0Q327.0 424.0 343.5 409.5Q360.0 395.0 360.0 368.0Q360.0 340.0 343.5 325.0Q327.0 310.0 300.0 310.0Z"/>
<path id="g38" d="M300.0 -10.0Q231.0 -10.0 178.0 17.0Q125.0 44.0 95.5 92.5Q66.0 141.0 66.0 204.0Q66.0 273.0 105.5 323.0Q145.0 373.0 211.0 384.0L211.0 387.0Q154.0 400.0 120.0 444.5Q86.0 489.0 86.0 547.0Q86.0 604.0 113.0 647.5Q140.0 691.0 188.5 715.5Q237.0 740.0 300.0 740.0Q364.0 740.0 412.0 715.5Q460.0 691.0 487.0 647.5Q514.0 604.0 514.0 547.0Q514.0 489.0 480.0 444.5Q446.0 400.0 389.0 387.0L389.0 384.0Q455.0 373.0 494.5 323.0Q534.0 273.0 534.0 204.0Q534.0 141.0 504.5 92.5Q475.0 44.0 422.5 17.0Q370.0 -10.0 300.0 -10.0ZM300.0 422.0Q356.0 422.0 390.0 455.0Q424.0 488.0 424.0 541.0Q424.0 594.0 390.0 627.0Q356.0 660.0 300.0 660.0Q245.0 660.0 210.5 627.0Q176.0 594.0 176.0 541.0Q176.0 488.0 210.5 455.0Q245.0 422.0 300.0 422.0ZM300.0 71.0Q364.0 71.0 404.0 108.5Q444.0 146.0 444.0 206.0Q444.0 267.0 404.0 304.5Q364.0 342.0 300.0 342.0Q236.0 342.0 196.0 304.5Q156.0 267.0 156.0 206.0Q156.0 146.0 196.0 108.5Q236.0 71.0 300.0 71.0Z"/>
<path id="g168c2" d="M323.0 -16.0L285.0 16.0L372.0 123.0L372.0 232.0L188.0 361.0L56.0 344.0L50.0 394.0L159.0 408.0L117.0 514.0L163.0 532.0L213.0 404.0L372.0 294.0L372.0 451.0L277.0 545.0L146.0 560.0L152.0 610.0L261.0 597.0L245.0 711.0L295.0 717.0L313.0 581.0L397.0 498.0L480.0 581.0L499.0 717.0L549.0 711.0L533.0 597.0L642.0 610.0L648.0 560.0L516.0 545.0L422.0 451.0L422.0 294.0L580.0 404.0L631.0 532.0L677.0 514.0L635.0 408.0L744.0 394.0L738.0 344.0L605.0 361.0L422.0 232.0L422.0 123.0L509.0 16.0L471.0 -16.0L397.0 76.0L323.0 -16.0Z"/>
<path id="g53" d="M304.0 -10.0Q198.0 -10.0 135.0 46.0Q72.0 102.0 72.0 200.0L162.0 200.0Q162.0 139.0 201.0 104.5Q240.0 70.0 304.0 70.0Q366.0 70.0 403.0 106.0Q440.0 142.0 440.0 200.0Q440.0 244.0 416.5 276.5Q393.0 309.0 349.0 321.0L238.0 352.0Q169.0 372.0 129.5 423.5Q90.0 475.0 90.0 545.0Q90.0 603.0 116.0 647.0Q142.0 691.0 189.0 715.5Q236.0 740.0 297.0 740.0Q359.0 740.0 406.5 715.5Q454.0 691.0 481.0 647.5Q508.0 604.0 508.0 547.0L418.0 547.0Q418.0 597.0 384.0 628.5Q350.0 660.0 297.0 660.0Q244.0 660.0 211.0 628.5Q178.0 597.0 178.0 547.0Q178.0 507.0 199.5 478.5Q221.0 450.0 260.0 439.0L374.0 407.0Q447.0 387.0 487.5 331.5Q528.0 276.0 528.0 200.0Q528.0 104.0 467.0 47.0Q406.0 -10.0 304.0 -10.0Z"/>
<path id="g36" d="M301.0 -10.0Q231.0 -10.0 177.5 19.5Q124.0 49.0 94.0 101.5Q64.0 154.0 64.0 223.0Q64.0 271.0 82.0 321.5Q100.0 372.0 131.0 427.0L300.0 730.0L400.0 730.0L220.0 417.0L223.0 415.0Q236.0 432.0 262.0 441.0Q288.0 450.0 319.0 450.0Q384.0 450.0 432.5 421.5Q481.0 393.0 508.5 343.0Q536.0 293.0 536.0 227.0Q536.0 157.0 506.0 103.5Q476.0 50.0 423.5 20.0Q371.0 -10.0 301.0 -10.0ZM300.0 70.0Q365.0 70.0 405.5 113.0Q446.0 156.0 446.0 225.0Q446.0 294.0 405.5 337.0Q365.0 380.0 300.0 380.0Q235.0 380.0 194.5 337.0Q154.0 294.0 154.0 225.0Q154.0 156.0 194.5 113.0Q235.0 70.0 300.0 70.0Z"/>
<path id="g47" d="M304.0 -10.0Q204.0 -10.0 146.0 46.0Q88.0 102.0 88.0 200.0L88.0 530.0Q88.0 628.0 146.0 684.0Q204.0 740.0 304.0 740.0Q402.0 740.0 460.0 683.5Q518.0 627.0 518.0 530.0L428.0 530.0Q428.0 592.0 395.5 625.5Q363.0 659.0 304.0 659.0Q245.0 659.0 211.5 626.0Q178.0 593.0 178.0 531.0L178.0 200.0Q178.0 138.0 211.5 104.0Q245.0 70.0 304.0 70.0Q363.0 70.0 395.5 104.0Q428.0 138.0 428.0 200.0L428.0 300.0L280.0 300.0L280.0 382.0L518.0 382.0L518.0 200.0Q518.0 103.0 460.0 46.5Q402.0 -10.0 304.0 -10.0Z"/>
<path id="g6c" d="M380.0 0.0Q307.0 0.0 263.5 42.5Q220.0 85.0 220.0 155.0L220.0 648.0L30.0 648.0L30.0 730.0L310.0 730.0L310.0 155.0Q310.0 121.0 329.0 101.5Q348.0 82.0 380.0 82.0L550.0 82.0L550.0 0.0L380.0 0.0Z"/>
<path id="g57" d="M107.0 0.0L20.0 730.0L103.0 730.0L160.0 190.0Q164.0 157.0 166.0 121.5Q168.0 86.0 169.0 65.0Q171.0 86.0 174.5 121.5Q178.0 157.0 182.0 190.0L254.0 730.0L351.0 730.0L417.0 190.0Q421.0 157.0 425.0 121.5Q429.0 86.0 431.0 65.0Q433.0 86.0 435.5 121.5Q438.0 157.0 442.0 190.0L501.0 730.0L580.0 730.0L491.0 0.0L378.0 0.0L312.0 550.0Q308.0 584.0 306.0 616.5Q304.0 649.0 302.0 667.0Q300.0 649.0 298.0 616.5Q296.0 584.0 291.0 550.0L220.0 0.0L107.0 0.0Z"/>
<path id="g72" d="M112.0 0.0L112.0 550.0L202.0 550.0L202.0 445.0L204.0 445.0Q211.0 498.0 249.0 529.0Q287.0 560.0 351.0 560.0Q437.0 560.0 483.5 508.5Q530.0 457.0 530.0 362.0L530.0 315.0L440.0 315.0L440.0 362.0Q440.0 482.0 323.0 482.0Q264.0 482.0 233.0 448.0Q202.0 414.0 202.0 350.0L202.0 0.0L112.0 0.0Z"/>
<path id="g75" d="M299.0 -10.0Q204.0 -10.0 147.0 46.5Q90.0 103.0 90.0 200.0L90.0 550.0L180.0 550.0L180.0 200.0Q180.0 140.0 212.0 104.5Q244.0 69.0 299.0 69.0Q355.0 69.0 387.5 104.5Q420.0 140.0 420.0 200.0L420.0 550.0L510.0 550.0L510.0 200.0Q510.0 103.0 452.0 46.5Q394.0 -10.0 299.0 -10.0Z"/>
<path id="g6d" d="M60.0 0.0L60.0 550.0L138.0 550.0L138.0 477.0L140.0 477.0Q145.0 514.0 169.5 537.0Q194.0 560.0 232.0 560.0Q268.0 560.0 293.0 539.0Q318.0 518.0 329.0 482.0L330.0 482.0Q337.0 518.0 361.5 539.0Q386.0 560.0 424.0 560.0Q477.0 560.0 508.5 520.5Q540.0 481.0 540.0 418.0L540.0 0.0L456.0 0.0L456.0 419.0Q456.0 452.0 440.0 471.5Q424.0 491.0 396.0 491.0Q369.0 491.0 353.0 472.0Q337.0 453.0 337.0 420.0L337.0 0.0L263.0 0.0L263.0 419.0Q263.0 452.0 247.0 471.5Q231.0 491.0 204.0 491.0Q176.0 491.0 160.0 472.0Q144.0 453.0 144.0 420.0L144.0 0.0L60.0 0.0Z"/>
<path id="ge0b4" d="M-36.0 1027.0L-36.0 -307.0L6.0 -307.0Q151.0 -307.0 302.0 -209.0Q600.0 -20.0 600.0 359.0Q600.0 741.0 302.0 932.0Q153.0 1027.0 6.0 1027.0L-36.0 1027.0Z"/>
<path id="g43" d="M308.0 -10.0Q208.0 -10.0 150.0 46.0Q92.0 102.0 92.0 200.0L92.0 530.0Q92.0 628.0 150.0 684.0Q208.0 740.0 308.0 740.0Q406.0 740.0 464.0 683.5Q522.0 627.0 522.0 530.0L432.0 530.0Q432.0 592.0 399.5 625.5Q367.0 659.0 308.0 659.0Q249.0 659.0 215.5 625.5Q182.0 592.0 182.0 530.0L182.0 200.0Q182.0 138.0 215.5 104.5Q249.0 71.0 308.0 71.0Q367.0 71.0 399.5 104.5Q432.0 138.0 432.0 200.0L522.0 200.0Q522.0 103.0 464.0 46.5Q406.0 -10.0 308.0 -10.0Z"/>
<path id="g39" d="M195.0 0.0L375.0 313.0L372.0 315.0Q362.0 299.0 335.0 289.5Q308.0 280.0 276.0 280.0Q213.0 280.0 165.5 308.5Q118.0 337.0 91.0 387.0Q64.0 437.0 64.0 503.0Q64.0 574.0 94.0 627.0Q124.0 680.0 177.0 710.0Q230.0 740.0 299.0 740.0Q370.0 740.0 423.0 710.5Q476.0 681.0 506.0 628.5Q536.0 576.0 536.0 507.0Q536.0 459.0 518.0 408.5Q500.0 358.0 469.0 303.0L300.0 0.0L195.0 0.0ZM300.0 350.0Q365.0 350.0 405.5 393.0Q446.0 436.0 446.0 505.0Q446.0 574.0 405.5 617.0Q365.0 660.0 300.0 660.0Q235.0 660.0 194.5 617.0Q154.0 574.0 154.0 505.0Q154.0 436.0 194.5 393.0Q235.0 350.0 300.0 350.0Z"/>
<path id="g77" d="M121.0 0.0L31.0 550.0L109.0 550.0L165.0 162.0Q168.0 140.0 171.0 113.5Q174.0 87.0 175.0 70.0Q177.0 87.0 179.5 113.5Q182.0 140.0 186.0 162.0L255.0 550.0L345.0 550.0L414.0 162.0Q418.0 140.0 421.5 113.5Q425.0 87.0 426.0 70.0Q428.0 87.0 431.0 113.5Q434.0 140.0 437.0 162.0L495.0 550.0L569.0 550.0L475.0 0.0L376.0 0.0L313.0 380.0Q309.0 408.0 305.5 439.5Q302.0 471.0 300.0 488.0Q299.0 471.0 295.0 439.5Q291.0 408.0 286.0 380.0L220.0 0.0L121.0 0.0Z"/>
<path id="g62" d="M332.0 -10.0Q270.0 -10.0 230.0 20.5Q190.0 51.0 183.0 105.0L182.0 105.0L182.0 0.0L92.0 0.0L92.0 730.0L182.0 730.0L182.0 570.0L180.0 445.0L181.0 445.0Q189.0 498.0 229.5 529.0Q270.0 560.0 332.0 560.0Q415.0 560.0 464.0 505.0Q513.0 450.0 513.0 355.0L513.0 194.0Q513.0 100.0 464.0 45.0Q415.0 -10.0 332.0 -10.0ZM302.0 68.0Q359.0 68.0 391.0 98.0Q423.0 128.0 423.0 195.0L423.0 355.0Q423.0 423.0 391.0 452.5Q359.0 482.0 302.0 482.0Q247.0 482.0 214.5 447.0Q182.0 412.0 182.0 350.0L182.0 200.0Q182.0 138.0 214.5 103.0Q247.0 68.0 302.0 68.0Z"/>
<path id="g46" d="M95.0 0.0L95.0 730.0L525.0 730.0L525.0 648.0L183.0 648.0L183.0 406.0L499.0 406.0L499.0 324.0L185.0 324.0L185.0 0.0L95.0 0.0Z"/>
<path id="g78" d="M50.0 0.0L245.0 283.0L62.0 550.0L168.0 550.0L277.0 380.0Q284.0 369.0 290.5 356.0Q297.0 343.0 301.0 335.0Q304.0 343.0 310.5 356.0Q317.0 369.0 324.0 380.0L433.0 550.0L539.0 550.0L356.0 282.0L550.0 0.0L444.0 0.0L326.0 180.0Q319.0 191.0 312.5 205.5Q306.0 220.0 301.0 229.0Q297.0 220.0 289.5 205.5Q282.0 191.0 274.0 180.0L156.0 0.0L50.0 0.0Z"/>
<path id="g64" d="M268.0 -10.0Q186.0 -10.0 136.5 45.0Q87.0 100.0 87.0 194.0L87.0 355.0Q87.0 450.0 136.0 505.0Q185.0 560.0 268.0 560.0Q330.0 560.0 370.5 529.0Q411.0 498.0 419.0 445.0L420.0 445.0L418.0 570.0L418.0 730.0L508.0 730.0L508.0 0.0L418.0 0.0L418.0 105.0L417.0 105.0Q410.0 51.0 370.0 20.5Q330.0 -10.0 268.0 -10.0ZM298.0 68.0Q354.0 68.0 386.0 103.0Q418.0 138.0 418.0 200.0L418.0 350.0Q418.0 412.0 386.0 447.0Q354.0 482.0 298.0 482.0Q241.0 482.0 209.0 452.5Q177.0 423.0 177.0 355.0L177.0 195.0Q177.0 128.0 209.0 98.0Q241.0 68.0 298.0 68.0Z"/>
<path id="gf018d" d="M540.0 150.0L540.0 510.0L60.0 510.0L60.0 150.0L540.0 150.0ZM540.0 630.0Q564.0 630.0 582.0 613.0Q600.0 596.0 600.0 570.0L600.0 150.0Q600.0 126.0 582.0 108.0Q564.0 90.0 540.0 90.0L60.0 90.0Q36.0 90.0 18.0 107.0Q0.0 124.0 0.0 150.0L0.0 570.0Q0.0 594.0 18.0 612.0Q36.0 630.0 60.0 630.0L540.0 630.0ZM330.0 210.0L330.0 270.0L480.0 270.0L480.0 210.0L330.0 210.0ZM226.0 330.0L106.0 450.0L192.0 450.0L292.0 352.0Q300.0 342.0 300.0 330.0Q300.0 318.0 292.0 308.0L194.0 210.0L106.0 210.0L226.0 330.0Z"/>
<path id="g45" d="M100.0 0.0L100.0 730.0L520.0 730.0L520.0 648.0L189.0 648.0L189.0 422.0L485.0 422.0L485.0 342.0L189.0 342.0L189.0 82.0L520.0 82.0L520.0 0.0L100.0 0.0Z"/>
<path id="g4d" d="M72.0 0.0L72.0 730.0L205.0 730.0L298.0 414.0L395.0 730.0L528.0 730.0L528.0 0.0L441.0 0.0L441.0 345.0Q441.0 394.0 442.5 457.5Q444.0 521.0 447.0 586.0Q450.0 651.0 454.0 703.0L336.0 326.0L258.0 326.0L145.0 694.0Q153.0 620.0 156.0 532.0Q159.0 444.0 159.0 345.0L159.0 0.0L72.0 0.0Z"/>
<path id="g6a" d="M90.0 -180.0L90.0 -98.0L214.0 -98.0Q276.0 -98.0 310.5 -64.0Q345.0 -30.0 345.0 31.0L345.0 468.0L85.0 468.0L85.0 550.0L435.0 550.0L435.0 31.0Q435.0 -66.0 375.0 -123.0Q315.0 -180.0 214.0 -180.0L90.0 -180.0ZM380.0 649.0Q347.0 649.0 328.0 666.0Q309.0 683.0 309.0 712.0Q309.0 742.0 328.0 759.5Q347.0 777.0 380.0 777.0Q413.0 777.0 432.0 759.5Q451.0 742.0 451.0 712.0Q451.0 683.0 432.0 666.0Q413.0 649.0 380.0 649.0Z"/>
<path id="g34" d="M400.0 0.0L400.0 160.0L70.0 160.0L70.0 301.0L336.0 730.0L438.0 730.0L160.0 281.0L160.0 242.0L400.0 242.0L400.0 420.0L490.0 420.0L490.0 0.0L400.0 0.0Z"/>
<path id="g2716" d="M1493.0 344.0L1149.0 0.0L778.0 371.0L408.0 0.0L63.0 344.0L434.0 715.0L63.0 1083.0L410.0 1430.0L778.0 1061.0L1147.0 1430.0L1493.0 1083.0L1122.0 715.0L1493.0 344.0Z"/>
<path id="g44" d="M92.0 0.0L92.0 730.0L281.0 730.0Q352.0 730.0 403.5 703.0Q455.0 676.0 483.5 627.0Q512.0 578.0 512.0 511.0L512.0 220.0Q512.0 153.0 483.5 103.5Q455.0 54.0 403.5 27.0Q352.0 0.0 281.0 0.0L92.0 0.0ZM182.0 80.0L281.0 80.0Q347.0 80.0 384.5 117.0Q422.0 154.0 422.0 220.0L422.0 511.0Q422.0 576.0 384.5 613.0Q347.0 650.0 281.0 650.0L182.0 650.0L182.0 80.0Z"/>
<path id="g4e" d="M90.0 0.0L90.0 730.0L210.0 730.0L433.0 105.0Q431.0 130.0 428.5 166.5Q426.0 203.0 424.5 243.5Q423.0 284.0 423.0 320.0L423.0 730.0L510.0 730.0L510.0 0.0L390.0 0.0L168.0 625.0Q170.0 601.0 172.0 564.5Q174.0 528.0 175.5 487.5Q177.0 447.0 177.0 410.0L177.0 0.0L90.0 0.0Z"/>
<path id="g4c" d="M130.0 0.0L130.0 730.0L220.0 730.0L220.0 82.0L550.0 82.0L550.0 0.0L130.0 0.0Z"/>
<path id="g66" d="M215.0 0.0L215.0 393.0L55.0 393.0L55.0 475.0L215.0 475.0L215.0 590.0Q215.0 655.0 256.0 692.5Q297.0 730.0 369.0 730.0L530.0 730.0L530.0 648.0L369.0 648.0Q305.0 648.0 305.0 590.0L305.0 475.0L530.0 475.0L530.0 393.0L305.0 393.0L305.0 0.0L215.0 0.0Z"/>
<path id="g2717" d="M89.0 92.0L32.0 149.0L243.0 359.0L31.0 571.0L89.0 629.0L301.0 417.0L511.0 628.0L568.0 571.0L357.0 361.0L569.0 149.0L511.0 91.0L299.0 303.0L89.0 92.0Z"/>
<path id="g4b" d="M92.0 0.0L92.0 730.0L182.0 730.0L182.0 416.0L290.0 416.0L452.0 730.0L550.0 730.0L369.0 378.0L560.0 0.0L457.0 0.0L287.0 337.0L182.0 337.0L182.0 0.0L92.0 0.0Z"/>
<path id="g56" d="M238.0 0.0L50.0 730.0L142.0 730.0L267.0 233.0Q280.0 181.0 288.5 137.0Q297.0 93.0 301.0 70.0Q305.0 93.0 314.5 137.5Q324.0 182.0 337.0 234.0L457.0 730.0L550.0 730.0L361.0 0.0L238.0 0.0Z"/>
<path id="g25cb" d="M300.0 50.0Q212.0 50.0 141.5 90.5Q71.0 131.0 30.5 201.5Q-10.0 272.0 -10.0 360.0Q-10.0 449.0 30.5 519.0Q71.0 589.0 141.5 629.5Q212.0 670.0 300.0 670.0Q389.0 670.0 459.0 629.5Q529.0 589.0 569.5 519.0Q610.0 449.0 610.0 360.0Q610.0 272.0 569.5 201.5Q529.0 131.0 459.0 90.5Q389.0 50.0 300.0 50.0ZM300.0 100.0Q374.0 100.0 433.0 134.0Q492.0 168.0 526.0 227.0Q560.0 286.0 560.0 360.0Q560.0 434.0 526.0 493.0Q492.0 552.0 433.0 586.0Q374.0 620.0 300.0 620.0Q226.0 620.0 167.0 586.0Q108.0 552.0 74.0 493.0Q40.0 434.0 40.0 360.0Q40.0 286.0 74.0 227.0Q108.0 168.0 167.0 134.0Q226.0 100.0 300.0 100.0Z"/>
<path id="g33" d="M289.0 -10.0Q188.0 -10.0 129.0 46.5Q70.0 103.0 70.0 200.0L160.0 200.0Q160.0 140.0 195.0 105.0Q230.0 70.0 290.0 70.0Q350.0 70.0 385.0 105.0Q420.0 140.0 420.0 200.0L420.0 250.0Q420.0 310.0 385.0 345.0Q350.0 380.0 290.0 380.0L211.0 380.0L211.0 458.0L390.0 648.0L90.0 648.0L90.0 730.0L492.0 730.0L492.0 646.0L316.0 459.0Q406.0 452.0 458.0 396.5Q510.0 341.0 510.0 250.0L510.0 200.0Q510.0 103.0 450.5 46.5Q391.0 -10.0 289.0 -10.0Z"/>
<path id="g5a" d="M85.0 0.0L85.0 90.0L414.0 648.0L90.0 648.0L90.0 730.0L505.0 730.0L505.0 640.0L176.0 82.0L515.0 82.0L515.0 0.0L85.0 0.0Z"/>
<path id="g79" d="M178.0 -180.0L259.0 34.0L54.0 550.0L151.0 550.0L281.0 210.0Q289.0 190.0 296.0 168.0Q303.0 146.0 306.0 130.0Q309.0 146.0 316.0 168.0Q323.0 190.0 330.0 210.0L451.0 550.0L546.0 550.0L272.0 -180.0L178.0 -180.0Z"/>
</defs>
<rect width="542" height="225" rx="8" fill="#1F1F28"/>
<rect x="127.2" y="12.0" width="86.4" height="22.4" fill="#B35662"/>
<use href="#g25cf" fill="#B35662" transform="translate(21.6 28.3) scale(0.0160 -0.0160)"/>
<use href="#g2502" fill="#ADA996" transform="translate(40.8 28.3) scale(0.0160 -0.0160)"/>
<use href="#g35" fill="#7A945B" transform="translate(69.6 28.3) scale(0.0160 -0.0160)"/>
<use href="#g32" fill="#7A945B" transform="translate(79.2 28.3) scale(0.0160 -0.0160)"/>
<use href="#g6b" fill="#7A945B" transform="translate(88.8 28.3) scale(0.0160 -0.0160)"/>
<use href="#gf062c" fill="#B49A6D" transform="translate(108.0 28.3) scale(0.0160 -0.0160)"/>
<use href="#g41" fill="#16161D" transform="translate(127.2 28.3) scale(0.0160 -0.0160)"/>
<use href="#g55" fill="#16161D" transform="translate(136.8 28.3) scale(0.0160 -0.0160)"/>
<use href="#g54" fill="#16161D" transform="translate(146.4 28.3) scale(0.0160 -0.0160)"/>
<use href="#g48" fill="#16161D" transform="translate(156.0 28.3) scale(0.0160 -0.0160)"/>
<use href="#g2d" fill="#16161D" transform="translate(165.6 28.3) scale(0.0160 -0.0160)"/>
<use href="#g37" fill="#16161D" transform="translate(175.2 28.3) scale(0.0160 -0.0160)"/>
<use href="#g61" fill="#B49A6D" transform="translate(223.2 28.3) scale(0.0160 -0.0160)"/>
<use href="#g70" fill="#B49A6D" transform="translate(232.8 28.3) scale(0.0160 -0.0160)"/>
<use href="#g69" fill="#B49A6D" transform="translate(242.4 28.3) scale(0.0160 -0.0160)"/>
<use href="#g2d" fill="#B49A6D" transform="translate(252.0 28.3) scale(0.0160 -0.0160)"/>
<use href="#g73" fill="#B49A6D" transform="translate(261.6 28.3) scale(0.0160 -0.0160)"/>
<use href="#g76" fill="#B49A6D" transform="translate(271.2 28.3) scale(0.0160 -0.0160)"/>
<use href="#g63" fill="#B49A6D" transform="translate(280.8 28.3) scale(0.0160 -0.0160)"/>
<use href="#g52" fill="#ADA996" transform="translate(300.0 28.3) scale(0.0160 -0.0160)"/>
<use href="#g6f" fill="#ADA996" transform="translate(309.6 28.3) scale(0.0160 -0.0160)"/>
<use href="#g74" fill="#ADA996" transform="translate(319.2 28.3) scale(0.0160 -0.0160)"/>
<use href="#g61" fill="#ADA996" transform="translate(328.8 28.3) scale(0.0160 -0.0160)"/>
<use href="#g74" fill="#ADA996" transform="translate(338.4 28.3) scale(0.0160 -0.0160)"/>
<use href="#g65" fill="#ADA996" transform="translate(348.0 28.3) scale(0.0160 -0.0160)"/>
<use href="#g74" fill="#ADA996" transform="translate(367.2 28.3) scale(0.0160 -0.0160)"/>
<use href="#g68" fill="#ADA996" transform="translate(376.8 28.3) scale(0.0160 -0.0160)"/>
<use href="#g65" fill="#ADA996" transform="translate(386.4 28.3) scale(0.0160 -0.0160)"/>
<use href="#g73" fill="#ADA996" transform="translate(405.6 28.3) scale(0.0160 -0.0160)"/>
<use href="#g69" fill="#ADA996" transform="translate(415.2 28.3) scale(0.0160 -0.0160)"/>
<use href="#g67" fill="#ADA996" transform="translate(424.8 28.3) scale(0.0160 -0.0160)"/>
<use href="#g6e" fill="#ADA996" transform="translate(434.4 28.3) scale(0.0160 -0.0160)"/>
<use href="#g69" fill="#ADA996" transform="translate(444.0 28.3) scale(0.0160 -0.0160)"/>
<use href="#g6e" fill="#ADA996" transform="translate(453.6 28.3) scale(0.0160 -0.0160)"/>
<use href="#g67" fill="#ADA996" transform="translate(463.2 28.3) scale(0.0160 -0.0160)"/>
<use href="#g6b" fill="#ADA996" transform="translate(482.4 28.3) scale(0.0160 -0.0160)"/>
<use href="#g65" fill="#ADA996" transform="translate(492.0 28.3) scale(0.0160 -0.0160)"/>
<use href="#g2026" fill="#ADA996" transform="translate(501.6 28.3) scale(0.0160 -0.0160)"/>
<rect x="21.6" y="34.4" width="105.6" height="22.4" fill="#2D4F67"/>
<rect x="127.2" y="34.4" width="86.4" height="22.4" fill="#7AA89F"/>
<rect x="213.6" y="34.4" width="307.2" height="22.4" fill="#2D4F67"/>
<use href="#ge0b6" fill="#2D4F67" transform="translate(12.0 50.7) scale(0.0160 -0.0160)"/>
<use href="#g25cf" fill="#FF9E3B" transform="translate(21.6 50.7) scale(0.0160 -0.0160)"/>
<use href="#g2502" fill="#DCD7BA" transform="translate(40.8 50.7) scale(0.0160 -0.0160)"/>
<use href="#g31" fill="#E6C384" transform="translate(60.0 50.7) scale(0.0160 -0.0160)"/>
<use href="#g30" fill="#E6C384" transform="translate(69.6 50.7) scale(0.0160 -0.0160)"/>
<use href="#g38" fill="#E6C384" transform="translate(79.2 50.7) scale(0.0160 -0.0160)"/>
<use href="#g6b" fill="#E6C384" transform="translate(88.8 50.7) scale(0.0160 -0.0160)"/>
<use href="#g168c2" fill="#7E9CD8" transform="translate(108.0 50.7) scale(0.0160 -0.0160)"/>
<use href="#g53" fill="#16161D" transform="translate(127.2 50.7) scale(0.0160 -0.0160)"/>
<use href="#g36" fill="#16161D" transform="translate(136.8 50.7) scale(0.0160 -0.0160)"/>
<use href="#g2d" fill="#16161D" transform="translate(146.4 50.7) scale(0.0160 -0.0160)"/>
<use href="#g47" fill="#16161D" transform="translate(156.0 50.7) scale(0.0160 -0.0160)"/>
<use href="#g55" fill="#16161D" transform="translate(165.6 50.7) scale(0.0160 -0.0160)"/>
<use href="#g54" fill="#16161D" transform="translate(175.2 50.7) scale(0.0160 -0.0160)"/>
<use href="#g63" fill="#7E9CD8" transform="translate(223.2 50.7) scale(0.0160 -0.0160)"/>
<use href="#g6c" fill="#7E9CD8" transform="translate(232.8 50.7) scale(0.0160 -0.0160)"/>
<use href="#g61" fill="#7E9CD8" transform="translate(242.4 50.7) scale(0.0160 -0.0160)"/>
<use href="#g76" fill="#7E9CD8" transform="translate(252.0 50.7) scale(0.0160 -0.0160)"/>
<use href="#g65" fill="#7E9CD8" transform="translate(261.6 50.7) scale(0.0160 -0.0160)"/>
<use href="#g57" fill="#7E9CD8" transform="translate(300.0 50.7) scale(0.0160 -0.0160)"/>
<use href="#g69" fill="#7E9CD8" transform="translate(309.6 50.7) scale(0.0160 -0.0160)"/>
<use href="#g72" fill="#7E9CD8" transform="translate(319.2 50.7) scale(0.0160 -0.0160)"/>
<use href="#g65" fill="#7E9CD8" transform="translate(328.8 50.7) scale(0.0160 -0.0160)"/>
<use href="#g74" fill="#7E9CD8" transform="translate(348.0 50.7) scale(0.0160 -0.0160)"/>
<use href="#g68" fill="#7E9CD8" transform="translate(357.6 50.7) scale(0.0160 -0.0160)"/>
<use href="#g65" fill="#7E9CD8" transform="translate(367.2 50.7) scale(0.0160 -0.0160)"/>
<use href="#g73" fill="#7E9CD8" transform="translate(386.4 50.7) scale(0.0160 -0.0160)"/>
<use href="#g74" fill="#7E9CD8" transform="translate(396.0 50.7) scale(0.0160 -0.0160)"/>
<use href="#g61" fill="#7E9CD8" transform="translate(405.6 50.7) scale(0.0160 -0.0160)"/>
<use href="#g74" fill="#7E9CD8" transform="translate(415.2 50.7) scale(0.0160 -0.0160)"/>
<use href="#g75" fill="#7E9CD8" transform="translate(424.8 50.7) scale(0.0160 -0.0160)"/>
<use href="#g73" fill="#7E9CD8" transform="translate(434.4 50.7) scale(0.0160 -0.0160)"/>
<use href="#g63" fill="#7E9CD8" transform="translate(453.6 50.7) scale(0.0160 -0.0160)"/>
<use href="#g6f" fill="#7E9CD8" transform="translate(463.2 50.7) scale(0.0160 -0.0160)"/>
<use href="#g6c" fill="#7E9CD8" transform="translate(472.8 50.7) scale(0.0160 -0.0160)"/>
<use href="#g75" fill="#7E9CD8" transform="translate(482.4 50.7) scale(0.0160 -0.0160)"/>
<use href="#g6d" fill="#7E9CD8" transform="translate(492.0 50.7) scale(0.0160 -0.0160)"/>
<use href="#g2026" fill="#7E9CD8" transform="translate(501.6 50.7) scale(0.0160 -0.0160)"/>
<use href="#ge0b4" fill="#2D4F67" transform="translate(520.8 50.7) scale(0.0160 -0.0160)"/>
<rect x="127.2" y="56.8" width="86.4" height="22.4" fill="#C78056"/>
<use href="#g25cf" fill="#7A945B" transform="translate(21.6 73.1) scale(0.0160 -0.0160)"/>
<use href="#g2502" fill="#ADA996" transform="translate(40.8 73.1) scale(0.0160 -0.0160)"/>
<use href="#g31" fill="#7A945B" transform="translate(69.6 73.1) scale(0.0160 -0.0160)"/>
<use href="#g38" fill="#7A945B" transform="translate(79.2 73.1) scale(0.0160 -0.0160)"/>
<use href="#g6b" fill="#7A945B" transform="translate(88.8 73.1) scale(0.0160 -0.0160)"/>
<use href="#g43" fill="#16161D" transform="translate(127.2 73.1) scale(0.0160 -0.0160)"/>
<use href="#g41" fill="#16161D" transform="translate(136.8 73.1) scale(0.0160 -0.0160)"/>
<use href="#g52" fill="#16161D" transform="translate(146.4 73.1) scale(0.0160 -0.0160)"/>
<use href="#g54" fill="#16161D" transform="translate(156.0 73.1) scale(0.0160 -0.0160)"/>
<use href="#g2d" fill="#16161D" transform="translate(165.6 73.1) scale(0.0160 -0.0160)"/>
<use href="#g39" fill="#16161D" transform="translate(175.2 73.1) scale(0.0160 -0.0160)"/>
<use href="#g39" fill="#16161D" transform="translate(184.8 73.1) scale(0.0160 -0.0160)"/>
<use href="#g77" fill="#638681" transform="translate(223.2 73.1) scale(0.0160 -0.0160)"/>
<use href="#g65" fill="#638681" transform="translate(232.8 73.1) scale(0.0160 -0.0160)"/>
<use href="#g62" fill="#638681" transform="translate(242.4 73.1) scale(0.0160 -0.0160)"/>
<use href="#g61" fill="#638681" transform="translate(252.0 73.1) scale(0.0160 -0.0160)"/>
<use href="#g70" fill="#638681" transform="translate(261.6 73.1) scale(0.0160 -0.0160)"/>
<use href="#g70" fill="#638681" transform="translate(271.2 73.1) scale(0.0160 -0.0160)"/>
<use href="#g46" fill="#ADA996" transform="translate(300.0 73.1) scale(0.0160 -0.0160)"/>
<use href="#g69" fill="#ADA996" transform="translate(309.6 73.1) scale(0.0160 -0.0160)"/>
<use href="#g78" fill="#ADA996" transform="translate(319.2 73.1) scale(0.0160 -0.0160)"/>
<use href="#g63" fill="#ADA996" transform="translate(338.4 73.1) scale(0.0160 -0.0160)"/>
<use href="#g61" fill="#ADA996" transform="translate(348.0 73.1) scale(0.0160 -0.0160)"/>
<use href="#g72" fill="#ADA996" transform="translate(357.6 73.1) scale(0.0160 -0.0160)"/>
<use href="#g74" fill="#ADA996" transform="translate(367.2 73.1) scale(0.0160 -0.0160)"/>
<use href="#g74" fill="#ADA996" transform="translate(386.4 73.1) scale(0.0160 -0.0160)"/>
<use href="#g6f" fill="#ADA996" transform="translate(396.0 73.1) scale(0.0160 -0.0160)"/>
<use href="#g74" fill="#ADA996" transform="translate(405.6 73.1) scale(0.0160 -0.0160)"/>
<use href="#g61" fill="#ADA996" transform="translate(415.2 73.1) scale(0.0160 -0.0160)"/>
<use href="#g6c" fill="#ADA996" transform="translate(424.8 73.1) scale(0.0160 -0.0160)"/>
<use href="#g72" fill="#ADA996" transform="translate(444.0 73.1) scale(0.0160 -0.0160)"/>
<use href="#g6f" fill="#ADA996" transform="translate(453.6 73.1) scale(0.0160 -0.0160)"/>
<use href="#g75" fill="#ADA996" transform="translate(463.2 73.1) scale(0.0160 -0.0160)"/>
<use href="#g6e" fill="#ADA996" transform="translate(472.8 73.1) scale(0.0160 -0.0160)"/>
<use href="#g64" fill="#ADA996" transform="translate(482.4 73.1) scale(0.0160 -0.0160)"/>
<use href="#g69" fill="#ADA996" transform="translate(492.0 73.1) scale(0.0160 -0.0160)"/>
<use href="#g2026" fill="#ADA996" transform="translate(501.6 73.1) scale(0.0160 -0.0160)"/>
<rect x="127.2" y="79.2" width="86.4" height="22.4" fill="#181820"/>
<use href="#gf018d" fill="#C77E36" transform="translate(21.6 95.5) scale(0.0160 -0.0160)"/>
<use href="#g2502" fill="#ADA996" transform="translate(40.8 95.5) scale(0.0160 -0.0160)"/>
<use href="#g54" fill="#ADA996" transform="translate(60.0 95.5) scale(0.0160 -0.0160)"/>
<use href="#g45" fill="#ADA996" transform="translate(69.6 95.5) scale(0.0160 -0.0160)"/>
<use href="#g52" fill="#ADA996" transform="translate(79.2 95.5) scale(0.0160 -0.0160)"/>
<use href="#g4d" fill="#ADA996" transform="translate(88.8 95.5) scale(0.0160 -0.0160)"/>
<use href="#g168c2" fill="#667DAC" transform="translate(108.0 95.5) scale(0.0160 -0.0160)"/>
<use href="#g73" fill="#DCD7BA" transform="translate(127.2 95.5) scale(0.0160 -0.0160)"/>
<use href="#g68" fill="#DCD7BA" transform="translate(136.8 95.5) scale(0.0160 -0.0160)"/>
<use href="#g65" fill="#DCD7BA" transform="translate(146.4 95.5) scale(0.0160 -0.0160)"/>
<use href="#g6c" fill="#DCD7BA" transform="translate(156.0 95.5) scale(0.0160 -0.0160)"/>
<use href="#g6c" fill="#DCD7BA" transform="translate(165.6 95.5) scale(0.0160 -0.0160)"/>
<use href="#g63" fill="#667DAC" transform="translate(223.2 95.5) scale(0.0160 -0.0160)"/>
<use href="#g6c" fill="#667DAC" transform="translate(232.8 95.5) scale(0.0160 -0.0160)"/>
<use href="#g61" fill="#667DAC" transform="translate(242.4 95.5) scale(0.0160 -0.0160)"/>
<use href="#g76" fill="#667DAC" transform="translate(252.0 95.5) scale(0.0160 -0.0160)"/>
<use href="#g65" fill="#667DAC" transform="translate(261.6 95.5) scale(0.0160 -0.0160)"/>
<use href="#g6a" fill="#ADA996" transform="translate(300.0 95.5) scale(0.0160 -0.0160)"/>
<use href="#g75" fill="#ADA996" transform="translate(309.6 95.5) scale(0.0160 -0.0160)"/>
<use href="#g73" fill="#ADA996" transform="translate(319.2 95.5) scale(0.0160 -0.0160)"/>
<use href="#g74" fill="#ADA996" transform="translate(328.8 95.5) scale(0.0160 -0.0160)"/>
<use href="#g67" fill="#ADA996" transform="translate(348.0 95.5) scale(0.0160 -0.0160)"/>
<use href="#g61" fill="#ADA996" transform="translate(357.6 95.5) scale(0.0160 -0.0160)"/>
<use href="#g74" fill="#ADA996" transform="translate(367.2 95.5) scale(0.0160 -0.0160)"/>
<use href="#g65" fill="#ADA996" transform="translate(376.8 95.5) scale(0.0160 -0.0160)"/>
<use href="#g73" fill="#ADA996" transform="translate(386.4 95.5) scale(0.0160 -0.0160)"/>
<use href="#g25cf" fill="#47475C" transform="translate(21.6 117.9) scale(0.0160 -0.0160)"/>
<use href="#g2502" fill="#ADA996" transform="translate(40.8 117.9) scale(0.0160 -0.0160)"/>
<use href="#g31" fill="#C78056" transform="translate(60.0 117.9) scale(0.0160 -0.0160)"/>
<use href="#g34" fill="#C78056" transform="translate(69.6 117.9) scale(0.0160 -0.0160)"/>
<use href="#g31" fill="#C78056" transform="translate(79.2 117.9) scale(0.0160 -0.0160)"/>
<use href="#g6b" fill="#C78056" transform="translate(88.8 117.9) scale(0.0160 -0.0160)"/>
<use href="#g63" fill="#667DAC" transform="translate(223.2 117.9) scale(0.0160 -0.0160)"/>
<use href="#g6c" fill="#667DAC" transform="translate(232.8 117.9) scale(0.0160 -0.0160)"/>
<use href="#g61" fill="#667DAC" transform="translate(242.4 117.9) scale(0.0160 -0.0160)"/>
<use href="#g76" fill="#667DAC" transform="translate(252.0 117.9) scale(0.0160 -0.0160)"/>
<use href="#g65" fill="#667DAC" transform="translate(261.6 117.9) scale(0.0160 -0.0160)"/>
<use href="#g52" fill="#ADA996" transform="translate(300.0 117.9) scale(0.0160 -0.0160)"/>
<use href="#g65" fill="#ADA996" transform="translate(309.6 117.9) scale(0.0160 -0.0160)"/>
<use href="#g76" fill="#ADA996" transform="translate(319.2 117.9) scale(0.0160 -0.0160)"/>
<use href="#g69" fill="#ADA996" transform="translate(328.8 117.9) scale(0.0160 -0.0160)"/>
<use href="#g65" fill="#ADA996" transform="translate(338.4 117.9) scale(0.0160 -0.0160)"/>
<use href="#g77" fill="#ADA996" transform="translate(348.0 117.9) scale(0.0160 -0.0160)"/>
<use href="#g74" fill="#ADA996" transform="translate(367.2 117.9) scale(0.0160 -0.0160)"/>
<use href="#g68" fill="#ADA996" transform="translate(376.8 117.9) scale(0.0160 -0.0160)"/>
<use href="#g65" fill="#ADA996" transform="translate(386.4 117.9) scale(0.0160 -0.0160)"/>
<use href="#g73" fill="#ADA996" transform="translate(405.6 117.9) scale(0.0160 -0.0160)"/>
<use href="#g70" fill="#ADA996" transform="translate(415.2 117.9) scale(0.0160 -0.0160)"/>
<use href="#g61" fill="#ADA996" transform="translate(424.8 117.9) scale(0.0160 -0.0160)"/>
<use href="#g77" fill="#ADA996" transform="translate(434.4 117.9) scale(0.0160 -0.0160)"/>
<use href="#g6e" fill="#ADA996" transform="translate(444.0 117.9) scale(0.0160 -0.0160)"/>
<use href="#g69" fill="#ADA996" transform="translate(463.2 117.9) scale(0.0160 -0.0160)"/>
<use href="#g64" fill="#ADA996" transform="translate(472.8 117.9) scale(0.0160 -0.0160)"/>
<use href="#g65" fill="#ADA996" transform="translate(482.4 117.9) scale(0.0160 -0.0160)"/>
<use href="#g6e" fill="#ADA996" transform="translate(492.0 117.9) scale(0.0160 -0.0160)"/>
<use href="#g2026" fill="#ADA996" transform="translate(501.6 117.9) scale(0.0160 -0.0160)"/>
<rect x="127.2" y="123.9" width="86.4" height="22.4" fill="#7A945B"/>
<use href="#g2716" fill="#B62325" transform="translate(21.6 140.3) scale(0.0078 -0.0078)"/>
<use href="#g2502" fill="#ADA996" transform="translate(40.8 140.3) scale(0.0160 -0.0160)"/>
<use href="#g37" fill="#7A945B" transform="translate(69.6 140.3) scale(0.0160 -0.0160)"/>
<use href="#g39" fill="#7A945B" transform="translate(79.2 140.3) scale(0.0160 -0.0160)"/>
<use href="#g6b" fill="#7A945B" transform="translate(88.8 140.3) scale(0.0160 -0.0160)"/>
<use href="#gf062c" fill="#786794" transform="translate(108.0 140.3) scale(0.0160 -0.0160)"/>
<use href="#g44" fill="#16161D" transform="translate(127.2 140.3) scale(0.0160 -0.0160)"/>
<use href="#g4e" fill="#16161D" transform="translate(136.8 140.3) scale(0.0160 -0.0160)"/>
<use href="#g53" fill="#16161D" transform="translate(146.4 140.3) scale(0.0160 -0.0160)"/>
<use href="#g2d" fill="#16161D" transform="translate(156.0 140.3) scale(0.0160 -0.0160)"/>
<use href="#g54" fill="#16161D" transform="translate(165.6 140.3) scale(0.0160 -0.0160)"/>
<use href="#g54" fill="#16161D" transform="translate(175.2 140.3) scale(0.0160 -0.0160)"/>
<use href="#g4c" fill="#16161D" transform="translate(184.8 140.3) scale(0.0160 -0.0160)"/>
<use href="#g69" fill="#786794" transform="translate(223.2 140.3) scale(0.0160 -0.0160)"/>
<use href="#g6e" fill="#786794" transform="translate(232.8 140.3) scale(0.0160 -0.0160)"/>
<use href="#g66" fill="#786794" transform="translate(242.4 140.3) scale(0.0160 -0.0160)"/>
<use href="#g72" fill="#786794" transform="translate(252.0 140.3) scale(0.0160 -0.0160)"/>
<use href="#g61" fill="#786794" transform="translate(261.6 140.3) scale(0.0160 -0.0160)"/>
<use href="#g44" fill="#ADA996" transform="translate(300.0 140.3) scale(0.0160 -0.0160)"/>
<use href="#g65" fill="#ADA996" transform="translate(309.6 140.3) scale(0.0160 -0.0160)"/>
<use href="#g62" fill="#ADA996" transform="translate(319.2 140.3) scale(0.0160 -0.0160)"/>
<use href="#g75" fill="#ADA996" transform="translate(328.8 140.3) scale(0.0160 -0.0160)"/>
<use href="#g67" fill="#ADA996" transform="translate(338.4 140.3) scale(0.0160 -0.0160)"/>
<use href="#g73" fill="#ADA996" transform="translate(357.6 140.3) scale(0.0160 -0.0160)"/>
<use href="#g74" fill="#ADA996" transform="translate(367.2 140.3) scale(0.0160 -0.0160)"/>
<use href="#g61" fill="#ADA996" transform="translate(376.8 140.3) scale(0.0160 -0.0160)"/>
<use href="#g67" fill="#ADA996" transform="translate(386.4 140.3) scale(0.0160 -0.0160)"/>
<use href="#g69" fill="#ADA996" transform="translate(396.0 140.3) scale(0.0160 -0.0160)"/>
<use href="#g6e" fill="#ADA996" transform="translate(405.6 140.3) scale(0.0160 -0.0160)"/>
<use href="#g67" fill="#ADA996" transform="translate(415.2 140.3) scale(0.0160 -0.0160)"/>
<use href="#g72" fill="#ADA996" transform="translate(434.4 140.3) scale(0.0160 -0.0160)"/>
<use href="#g6f" fill="#ADA996" transform="translate(444.0 140.3) scale(0.0160 -0.0160)"/>
<use href="#g6c" fill="#ADA996" transform="translate(453.6 140.3) scale(0.0160 -0.0160)"/>
<use href="#g6c" fill="#ADA996" transform="translate(463.2 140.3) scale(0.0160 -0.0160)"/>
<use href="#g6f" fill="#ADA996" transform="translate(472.8 140.3) scale(0.0160 -0.0160)"/>
<use href="#g75" fill="#ADA996" transform="translate(482.4 140.3) scale(0.0160 -0.0160)"/>
<use href="#g74" fill="#ADA996" transform="translate(492.0 140.3) scale(0.0160 -0.0160)"/>
<use href="#g2026" fill="#ADA996" transform="translate(501.6 140.3) scale(0.0160 -0.0160)"/>
<rect x="127.2" y="146.3" width="86.4" height="22.4" fill="#181820"/>
<use href="#gf018d" fill="#B62325" transform="translate(21.6 162.6) scale(0.0160 -0.0160)"/>
<use href="#g2502" fill="#ADA996" transform="translate(40.8 162.6) scale(0.0160 -0.0160)"/>
<use href="#g54" fill="#ADA996" transform="translate(60.0 162.6) scale(0.0160 -0.0160)"/>
<use href="#g45" fill="#ADA996" transform="translate(69.6 162.6) scale(0.0160 -0.0160)"/>
<use href="#g52" fill="#ADA996" transform="translate(79.2 162.6) scale(0.0160 -0.0160)"/>
<use href="#g4d" fill="#ADA996" transform="translate(88.8 162.6) scale(0.0160 -0.0160)"/>
<use href="#g6c" fill="#DCD7BA" transform="translate(127.2 162.6) scale(0.0160 -0.0160)"/>
<use href="#g6f" fill="#DCD7BA" transform="translate(136.8 162.6) scale(0.0160 -0.0160)"/>
<use href="#g67" fill="#DCD7BA" transform="translate(146.4 162.6) scale(0.0160 -0.0160)"/>
<use href="#g73" fill="#DCD7BA" transform="translate(156.0 162.6) scale(0.0160 -0.0160)"/>
<use href="#g69" fill="#786794" transform="translate(223.2 162.6) scale(0.0160 -0.0160)"/>
<use href="#g6e" fill="#786794" transform="translate(232.8 162.6) scale(0.0160 -0.0160)"/>
<use href="#g66" fill="#786794" transform="translate(242.4 162.6) scale(0.0160 -0.0160)"/>
<use href="#g72" fill="#786794" transform="translate(252.0 162.6) scale(0.0160 -0.0160)"/>
<use href="#g61" fill="#786794" transform="translate(261.6 162.6) scale(0.0160 -0.0160)"/>
<use href="#g6b" fill="#ADA996" transform="translate(300.0 162.6) scale(0.0160 -0.0160)"/>
<use href="#g75" fill="#ADA996" transform="translate(309.6 162.6) scale(0.0160 -0.0160)"/>
<use href="#g62" fill="#ADA996" transform="translate(319.2 162.6) scale(0.0160 -0.0160)"/>
<use href="#g65" fill="#ADA996" transform="translate(328.8 162.6) scale(0.0160 -0.0160)"/>
<use href="#g63" fill="#ADA996" transform="translate(338.4 162.6) scale(0.0160 -0.0160)"/>
<use href="#g74" fill="#ADA996" transform="translate(348.0 162.6) scale(0.0160 -0.0160)"/>
<use href="#g6c" fill="#ADA996" transform="translate(357.6 162.6) scale(0.0160 -0.0160)"/>
<use href="#g6c" fill="#ADA996" transform="translate(376.8 162.6) scale(0.0160 -0.0160)"/>
<use href="#g6f" fill="#ADA996" transform="translate(386.4 162.6) scale(0.0160 -0.0160)"/>
<use href="#g67" fill="#ADA996" transform="translate(396.0 162.6) scale(0.0160 -0.0160)"/>
<use href="#g73" fill="#ADA996" transform="translate(405.6 162.6) scale(0.0160 -0.0160)"/>
<use href="#g2d" fill="#ADA996" transform="translate(424.8 162.6) scale(0.0160 -0.0160)"/>
<use href="#g66" fill="#ADA996" transform="translate(434.4 162.6) scale(0.0160 -0.0160)"/>
<use href="#g61" fill="#ADA996" transform="translate(453.6 162.6) scale(0.0160 -0.0160)"/>
<use href="#g70" fill="#ADA996" transform="translate(463.2 162.6) scale(0.0160 -0.0160)"/>
<use href="#g69" fill="#ADA996" transform="translate(472.8 162.6) scale(0.0160 -0.0160)"/>
<use href="#g2d" fill="#ADA996" transform="translate(482.4 162.6) scale(0.0160 -0.0160)"/>
<use href="#g37" fill="#ADA996" transform="translate(492.0 162.6) scale(0.0160 -0.0160)"/>
<use href="#g2026" fill="#ADA996" transform="translate(501.6 162.6) scale(0.0160 -0.0160)"/>
<rect x="127.2" y="168.7" width="86.4" height="22.4" fill="#A5667D"/>
<use href="#g2717" fill="#B62325" transform="translate(21.6 185.0) scale(0.0160 -0.0160)"/>
<use href="#g2502" fill="#ADA996" transform="translate(40.8 185.0) scale(0.0160 -0.0160)"/>
<use href="#g34" fill="#B35662" transform="translate(60.0 185.0) scale(0.0160 -0.0160)"/>
<use href="#g31" fill="#B35662" transform="translate(69.6 185.0) scale(0.0160 -0.0160)"/>
<use href="#g32" fill="#B35662" transform="translate(79.2 185.0) scale(0.0160 -0.0160)"/>
<use href="#g6b" fill="#B35662" transform="translate(88.8 185.0) scale(0.0160 -0.0160)"/>
<use href="#g168c2" fill="#667DAC" transform="translate(108.0 185.0) scale(0.0160 -0.0160)"/>
<use href="#g4b" fill="#16161D" transform="translate(127.2 185.0) scale(0.0160 -0.0160)"/>
<use href="#g44" fill="#16161D" transform="translate(136.8 185.0) scale(0.0160 -0.0160)"/>
<use href="#g4c" fill="#16161D" transform="translate(146.4 185.0) scale(0.0160 -0.0160)"/>
<use href="#g2d" fill="#16161D" transform="translate(156.0 185.0) scale(0.0160 -0.0160)"/>
<use href="#g47" fill="#16161D" transform="translate(165.6 185.0) scale(0.0160 -0.0160)"/>
<use href="#g52" fill="#16161D" transform="translate(175.2 185.0) scale(0.0160 -0.0160)"/>
<use href="#g44" fill="#16161D" transform="translate(184.8 185.0) scale(0.0160 -0.0160)"/>
<use href="#g63" fill="#667DAC" transform="translate(223.2 185.0) scale(0.0160 -0.0160)"/>
<use href="#g6c" fill="#667DAC" transform="translate(232.8 185.0) scale(0.0160 -0.0160)"/>
<use href="#g61" fill="#667DAC" transform="translate(242.4 185.0) scale(0.0160 -0.0160)"/>
<use href="#g76" fill="#667DAC" transform="translate(252.0 185.0) scale(0.0160 -0.0160)"/>
<use href="#g65" fill="#667DAC" transform="translate(261.6 185.0) scale(0.0160 -0.0160)"/>
<use href="#g56" fill="#ADA996" transform="translate(300.0 185.0) scale(0.0160 -0.0160)"/>
<use href="#g61" fill="#ADA996" transform="translate(309.6 185.0) scale(0.0160 -0.0160)"/>
<use href="#g6c" fill="#ADA996" transform="translate(319.2 185.0) scale(0.0160 -0.0160)"/>
<use href="#g69" fill="#ADA996" transform="translate(328.8 185.0) scale(0.0160 -0.0160)"/>
<use href="#g64" fill="#ADA996" transform="translate(338.4 185.0) scale(0.0160 -0.0160)"/>
<use href="#g61" fill="#ADA996" transform="translate(348.0 185.0) scale(0.0160 -0.0160)"/>
<use href="#g74" fill="#ADA996" transform="translate(357.6 185.0) scale(0.0160 -0.0160)"/>
<use href="#g65" fill="#ADA996" transform="translate(367.2 185.0) scale(0.0160 -0.0160)"/>
<use href="#g67" fill="#ADA996" transform="translate(386.4 185.0) scale(0.0160 -0.0160)"/>
<use href="#g65" fill="#ADA996" transform="translate(396.0 185.0) scale(0.0160 -0.0160)"/>
<use href="#g6e" fill="#ADA996" transform="translate(405.6 185.0) scale(0.0160 -0.0160)"/>
<use href="#g65" fill="#ADA996" transform="translate(415.2 185.0) scale(0.0160 -0.0160)"/>
<use href="#g72" fill="#ADA996" transform="translate(424.8 185.0) scale(0.0160 -0.0160)"/>
<use href="#g61" fill="#ADA996" transform="translate(434.4 185.0) scale(0.0160 -0.0160)"/>
<use href="#g74" fill="#ADA996" transform="translate(444.0 185.0) scale(0.0160 -0.0160)"/>
<use href="#g65" fill="#ADA996" transform="translate(453.6 185.0) scale(0.0160 -0.0160)"/>
<use href="#g64" fill="#ADA996" transform="translate(463.2 185.0) scale(0.0160 -0.0160)"/>
<use href="#g4b" fill="#ADA996" transform="translate(482.4 185.0) scale(0.0160 -0.0160)"/>
<use href="#g44" fill="#ADA996" transform="translate(492.0 185.0) scale(0.0160 -0.0160)"/>
<use href="#g2026" fill="#ADA996" transform="translate(501.6 185.0) scale(0.0160 -0.0160)"/>
<rect x="127.2" y="191.1" width="86.4" height="22.4" fill="#6F614D"/>
<use href="#g25cb" fill="#6B6962" transform="translate(21.6 207.4) scale(0.0160 -0.0160)"/>
<use href="#g2502" fill="#6B6962" transform="translate(40.8 207.4) scale(0.0160 -0.0160)"/>
<use href="#g39" fill="#6F614D" transform="translate(69.6 207.4) scale(0.0160 -0.0160)"/>
<use href="#g33" fill="#6F614D" transform="translate(79.2 207.4) scale(0.0160 -0.0160)"/>
<use href="#g6b" fill="#6F614D" transform="translate(88.8 207.4) scale(0.0160 -0.0160)"/>
<use href="#g5a" fill="#16161D" transform="translate(127.2 207.4) scale(0.0160 -0.0160)"/>
<use href="#g53" fill="#16161D" transform="translate(136.8 207.4) scale(0.0160 -0.0160)"/>
<use href="#g48" fill="#16161D" transform="translate(146.4 207.4) scale(0.0160 -0.0160)"/>
<use href="#g6e" fill="#4F5D43" transform="translate(223.2 207.4) scale(0.0160 -0.0160)"/>
<use href="#g6f" fill="#4F5D43" transform="translate(232.8 207.4) scale(0.0160 -0.0160)"/>
<use href="#g74" fill="#4F5D43" transform="translate(242.4 207.4) scale(0.0160 -0.0160)"/>
<use href="#g65" fill="#4F5D43" transform="translate(252.0 207.4) scale(0.0160 -0.0160)"/>
<use href="#g73" fill="#4F5D43" transform="translate(261.6 207.4) scale(0.0160 -0.0160)"/>
<use href="#g54" fill="#6B6962" transform="translate(300.0 207.4) scale(0.0160 -0.0160)"/>
<use href="#g69" fill="#6B6962" transform="translate(309.6 207.4) scale(0.0160 -0.0160)"/>
<use href="#g64" fill="#6B6962" transform="translate(319.2 207.4) scale(0.0160 -0.0160)"/>
<use href="#g79" fill="#6B6962" transform="translate(328.8 207.4) scale(0.0160 -0.0160)"/>
<use href="#g74" fill="#6B6962" transform="translate(348.0 207.4) scale(0.0160 -0.0160)"/>
<use href="#g68" fill="#6B6962" transform="translate(357.6 207.4) scale(0.0160 -0.0160)"/>
<use href="#g65" fill="#6B6962" transform="translate(367.2 207.4) scale(0.0160 -0.0160)"/>
<use href="#g73" fill="#6B6962" transform="translate(386.4 207.4) scale(0.0160 -0.0160)"/>
<use href="#g68" fill="#6B6962" transform="translate(396.0 207.4) scale(0.0160 -0.0160)"/>
<use href="#g65" fill="#6B6962" transform="translate(405.6 207.4) scale(0.0160 -0.0160)"/>
<use href="#g6c" fill="#6B6962" transform="translate(415.2 207.4) scale(0.0160 -0.0160)"/>
<use href="#g6c" fill="#6B6962" transform="translate(424.8 207.4) scale(0.0160 -0.0160)"/>
<use href="#g73" fill="#6B6962" transform="translate(444.0 207.4) scale(0.0160 -0.0160)"/>
<use href="#g74" fill="#6B6962" transform="translate(453.6 207.4) scale(0.0160 -0.0160)"/>
<use href="#g61" fill="#6B6962" transform="translate(463.2 207.4) scale(0.0160 -0.0160)"/>
<use href="#g72" fill="#6B6962" transform="translate(472.8 207.4) scale(0.0160 -0.0160)"/>
<use href="#g74" fill="#6B6962" transform="translate(482.4 207.4) scale(0.0160 -0.0160)"/>
<use href="#g75" fill="#6B6962" transform="translate(492.0 207.4) scale(0.0160 -0.0160)"/>
<use href="#g2026" fill="#6B6962" transform="translate(501.6 207.4) scale(0.0160 -0.0160)"/>
</svg>
